<svg width="178" height="48" viewBox="0 0 178 48" fill="none" xmlns="http://www.w3.org/2000/svg">
<g id="Logo">
<g id="Open">
<path d="M14.1093 37.2757C12.1109 37.2757 10.2791 36.8713 8.61379 36.0625C6.94849 35.2377 5.49731 34.0562 4.26023 32.5177C3.03901 30.9635 2.08741 29.0682 1.40543 26.8319C0.73931 24.5957 0.40625 22.066 0.40625 19.2429C0.40625 16.404 0.73931 13.8823 1.40543 11.6777C2.08741 9.45733 3.03901 7.57792 4.26023 6.0395C5.49731 4.50108 6.94849 3.33537 8.61379 2.54237C10.295 1.74937 12.1268 1.35287 14.1093 1.35287C16.1076 1.35287 17.9395 1.74937 19.6048 2.54237C21.2859 3.33537 22.7371 4.50108 23.9583 6.0395C25.1954 7.57792 26.147 9.45733 26.8131 11.6777C27.4951 13.8823 27.8361 16.404 27.8361 19.2429C27.8361 22.066 27.4951 24.5957 26.8131 26.8319C26.147 29.0682 25.1954 30.9635 23.9583 32.5177C22.7371 34.0562 21.2859 35.2377 19.6048 36.0625C17.9395 36.8713 16.1076 37.2757 14.1093 37.2757ZM14.1093 34.6113C16.2187 34.6113 18.0743 34.0165 19.6761 32.827C21.2938 31.6375 22.5547 29.9008 23.4587 27.617C24.3786 25.3332 24.8386 22.5418 24.8386 19.2429C24.8386 15.9282 24.3786 13.1448 23.4587 10.8927C22.5389 8.62468 21.2701 6.9118 19.6523 5.75402C18.0505 4.59624 16.2028 4.01735 14.1093 4.01735C12.0316 4.01735 10.1839 4.59624 8.56621 5.75402C6.94849 6.9118 5.67969 8.62468 4.75982 10.8927C3.83994 13.1448 3.38 15.9282 3.38 19.2429C3.38 22.5577 3.83994 25.357 4.75982 27.6408C5.67969 29.9246 6.94849 31.6613 8.56621 32.8508C10.1839 34.0244 12.0316 34.6113 14.1093 34.6113Z" fill="#222222"/>
<path d="M32.0287 47.22V11.5588H34.9787V47.22H32.0287ZM43.6858 37.2757C41.7509 37.2757 39.9587 36.8079 38.3093 35.8721C36.6598 34.9364 35.3276 33.6676 34.3125 32.0657C33.3134 30.4639 32.8138 28.6638 32.8138 26.6654C32.8138 26.6178 32.8138 26.5782 32.8138 26.5465C32.8138 26.5147 32.8138 26.483 32.8138 26.4513L34.9787 26.4037C34.9787 26.4354 34.9787 26.4672 34.9787 26.4989C34.9787 26.5306 34.9787 26.5623 34.9787 26.594C34.9787 28.0214 35.3672 29.3378 36.1444 30.5432C36.9215 31.7485 37.9366 32.7081 39.1895 33.4218C40.4583 34.1355 41.8302 34.4923 43.3052 34.4923C45.7476 34.4923 47.7539 33.6279 49.324 31.8992C50.91 30.1546 51.703 27.5853 51.703 24.1913C51.703 20.7814 50.91 18.212 49.324 16.4833C47.7539 14.7546 45.7476 13.8902 43.3052 13.8902C41.8302 13.8902 40.4583 14.247 39.1895 14.9607C37.9366 15.6744 36.9215 16.626 36.1444 17.8155C35.3672 19.005 34.9787 20.3214 34.9787 21.7647L32.8138 21.6933C32.8138 19.6949 33.3134 17.9028 34.3125 16.3168C35.3276 14.7308 36.6598 13.4858 38.3093 12.5817C39.9587 11.6619 41.7509 11.2019 43.6858 11.2019C45.7317 11.2019 47.5873 11.7094 49.2526 12.7245C50.9179 13.7237 52.2423 15.1907 53.2256 17.1256C54.2248 19.0605 54.7243 21.4158 54.7243 24.1913C54.7243 26.9985 54.2327 29.3775 53.2494 31.3282C52.2819 33.279 50.9576 34.7619 49.2764 35.777C47.6111 36.7761 45.7476 37.2757 43.6858 37.2757Z" fill="#222222"/>
<path d="M59.8652 25.4283V22.7876H80.3246L79.7536 23.5965C79.7536 23.5013 79.7536 23.422 79.7536 23.3586C79.7536 23.2793 79.7536 23.2 79.7536 23.1207C79.7536 21.4871 79.4047 19.9646 78.7069 18.553C78.009 17.1415 76.994 16.0075 75.6618 15.1511C74.3454 14.2946 72.7356 13.8664 70.8324 13.8664C68.8975 13.8664 67.1925 14.3105 65.7175 15.1986C64.2426 16.0709 63.0927 17.2842 62.268 18.8385C61.4433 20.3769 61.0309 22.1691 61.0309 24.215C61.0309 26.2768 61.4353 28.0928 62.2442 29.6629C63.0689 31.2172 64.2188 32.4305 65.6937 33.3028C67.1687 34.1593 68.8895 34.5875 70.8562 34.5875C72.2994 34.5875 73.5524 34.413 74.615 34.0641C75.6935 33.6993 76.5816 33.2235 77.2795 32.6367C77.9932 32.0499 78.5324 31.4313 78.8972 30.7811C79.2778 30.115 79.4999 29.4885 79.5633 28.9017H82.4895C82.426 29.8374 82.1247 30.7969 81.5855 31.7803C81.0621 32.7477 80.3087 33.6517 79.3254 34.4923C78.3579 35.3329 77.1526 36.0149 75.7093 36.5382C74.2819 37.0458 72.6325 37.2995 70.761 37.2995C68.3186 37.2995 66.1458 36.7444 64.2426 35.6342C62.3552 34.524 60.8644 32.9935 59.77 31.0428C58.6916 29.0761 58.1523 26.8161 58.1523 24.2626C58.1523 21.6933 58.6995 19.4333 59.7938 17.4825C60.8882 15.5158 62.3869 13.9774 64.2901 12.8672C66.1933 11.757 68.3582 11.2019 70.7848 11.2019C73.259 11.2019 75.4001 11.765 77.2081 12.891C79.0161 14.0171 80.4118 15.5476 81.3951 17.4825C82.3784 19.4015 82.8701 21.5585 82.8701 23.9534C82.8701 24.1595 82.8622 24.4212 82.8463 24.7384C82.8463 25.0556 82.8384 25.2856 82.8225 25.4283H59.8652Z" fill="#222222"/>
<path d="M105.618 36.8237V24.2626C105.618 23.4855 105.618 22.8669 105.618 22.407C105.618 21.9471 105.618 21.4951 105.618 21.051C105.618 19.6394 105.364 18.4103 104.857 17.3635C104.365 16.3009 103.604 15.4762 102.573 14.8894C101.542 14.2867 100.218 13.9854 98.6001 13.9854C97.1727 13.9854 95.8326 14.3422 94.5796 15.0559C93.3267 15.7537 92.3116 16.7053 91.5345 17.9107C90.7732 19.1161 90.3926 20.4721 90.3926 21.9788L88.6083 21.3127C88.6083 19.3936 89.1 17.6728 90.0833 16.1502C91.0825 14.6277 92.383 13.4223 93.9849 12.5342C95.6026 11.646 97.3155 11.2019 99.1235 11.2019C101.043 11.2019 102.708 11.5667 104.119 12.2963C105.531 13.01 106.617 14.0488 107.379 15.4128C108.156 16.7608 108.544 18.4024 108.544 20.3373C108.544 21.0034 108.544 21.7171 108.544 22.4784C108.544 23.2397 108.544 23.9296 108.544 24.5481V36.8237H105.618ZM87.4426 36.8237V11.5588H90.3926V36.8237H87.4426Z" fill="#222222"/>
</g>
<path id="Union" fill-rule="evenodd" clip-rule="evenodd" d="M166.36 28.9238C166.663 30.7649 169.066 31.7522 170.653 29.8336C171.844 28.3943 173.976 28.1928 175.415 29.3835C176.855 30.5741 177.056 32.7061 175.865 34.1453C170.292 40.8819 159.952 37.26 159.6 28.7644C159.587 28.6441 159.58 28.5251 159.58 28.4083L159.595 10.8283C159.595 9.078 161.11 7.65913 162.978 7.65913C164.845 7.65914 166.36 9.07801 166.36 10.8283L166.36 28.9238Z" fill="url(#paint0_linear_338_2908)"/>
<path id="Vector 124 (Stroke)" fill-rule="evenodd" clip-rule="evenodd" d="M128.492 10.2006C130.11 11.1345 130.664 13.203 129.73 14.8207L117.806 35.4742C116.872 37.0919 114.804 37.6461 113.186 36.7122C111.568 35.7782 111.014 33.7098 111.948 32.0921L123.872 11.4385C124.806 9.82088 126.875 9.26663 128.492 10.2006Z" fill="url(#paint1_linear_338_2908)"/>
<path id="Vector 126 (Stroke)" fill-rule="evenodd" clip-rule="evenodd" d="M146.791 37.3419C144.923 37.3419 143.409 35.8276 143.409 33.9597L143.409 15.9547C143.409 14.0868 144.923 12.5726 146.791 12.5726C148.659 12.5726 150.173 14.0868 150.173 15.9547L150.173 33.9597C150.173 35.8276 148.659 37.3419 146.791 37.3419Z" fill="url(#paint2_linear_338_2908)"/>
<path id="Vector 129 (Stroke)" fill-rule="evenodd" clip-rule="evenodd" d="M149.629 23.8739L148.385 23.8993L143.406 23.8659C143.451 22.5955 144.213 20.2316 144.789 19.1254C145.392 17.9691 146.249 16.779 147.333 15.7579C149.515 13.704 152.977 12.0765 157.004 13.586C158.607 14.1871 159.42 15.9741 158.818 17.5774C158.217 19.1807 156.43 19.9931 154.827 19.392C153.697 18.9684 152.648 19.2701 151.584 20.2721C151.046 20.7789 150.599 21.2101 150.288 21.9915C150.136 22.7147 150.17 23.8654 150.17 23.8654L149.629 23.8739Z" fill="url(#paint3_linear_338_2908)"/>
<path id="Vector 130 (Stroke)" fill-rule="evenodd" clip-rule="evenodd" d="M159.58 16.6682L159.58 13.8038L170.71 13.8039C171.977 13.8039 173.675 15.0311 173.675 16.7434C173.826 18.386 172.481 20.0045 170.71 20.0045H159.596L159.58 16.6682Z" fill="url(#paint4_linear_338_2908)"/>
<g id="Vector 131" style="mix-blend-mode:overlay" opacity="0.2">
<path d="M159.595 20.0328H166.334L166.334 22.9649H159.595V20.0328Z" fill="url(#paint5_linear_338_2908)"/>
</g>
<path id="Union_2" fill-rule="evenodd" clip-rule="evenodd" d="M123.668 11.8669C123.94 11.1891 124.433 10.5941 125.115 10.2006C126.733 9.26663 128.801 9.82088 129.735 11.4385L141.659 32.0921C142.593 33.7098 142.039 35.7782 140.421 36.7122C138.804 37.6461 136.735 37.0919 135.801 35.4742L126.762 19.8173L126.811 19.9436C125.017 16.38 122.248 16.0002 121.088 16.2558L123.654 11.8313L123.668 11.8669Z" fill="url(#paint6_linear_338_2908)"/>
</g>
<defs>
<linearGradient id="paint0_linear_338_2908" x1="159.58" y1="7.65913" x2="182.841" y2="13.6734" gradientUnits="userSpaceOnUse">
<stop stop-color="#9D0AFC"/>
<stop offset="1" stop-color="#0359FF"/>
</linearGradient>
<linearGradient id="paint1_linear_338_2908" x1="125.93" y1="13.6561" x2="131.401" y2="20.2314" gradientUnits="userSpaceOnUse">
<stop stop-color="#00DFBA"/>
<stop offset="1" stop-color="#048AFE"/>
</linearGradient>
<linearGradient id="paint2_linear_338_2908" x1="146.89" y1="13.4773" x2="146.89" y2="39.4608" gradientUnits="userSpaceOnUse">
<stop stop-color="#5900EB"/>
<stop offset="1" stop-color="#E367EE"/>
</linearGradient>
<linearGradient id="paint3_linear_338_2908" x1="146.353" y1="23.9314" x2="160.134" y2="14.6973" gradientUnits="userSpaceOnUse">
<stop stop-color="#9129EC"/>
<stop offset="1" stop-color="#9F03FF"/>
</linearGradient>
<linearGradient id="paint4_linear_338_2908" x1="166.979" y1="15.4005" x2="174.836" y2="23.6218" gradientUnits="userSpaceOnUse">
<stop stop-color="#930FFC"/>
<stop offset="0.865143" stop-color="#004BFB"/>
</linearGradient>
<linearGradient id="paint5_linear_338_2908" x1="162.964" y1="20.0866" x2="162.964" y2="22.632" gradientUnits="userSpaceOnUse">
<stop/>
<stop offset="1" stop-opacity="0"/>
</linearGradient>
<linearGradient id="paint6_linear_338_2908" x1="120.319" y1="9.99868" x2="153.292" y2="18.2519" gradientUnits="userSpaceOnUse">
<stop stop-color="#0056FE"/>
<stop offset="0.815625" stop-color="#D159ED"/>
</linearGradient>
</defs>
</svg>
